<svg width="666" height="216" viewBox="0 0 666 216" version="1.1" xmlns="http://www.w3.org/2000/svg" xmlns:xlink="http://www.w3.org/1999/xlink">
<title>contenta logo</title>
<desc>Created using Figma</desc>
<g id="Canvas" transform="matrix(2 0 0 2 -4184 862)">
<g id="contenta logo">
<g id="symbol">
<g id="Vector">
<use xlink:href="#path0_fill" transform="matrix(0.7071 -0.7071 0.7071 0.7071 2101 -377.119)" fill="#212D35"/>
</g>
<g id="Vector">
<use xlink:href="#path0_fill" transform="matrix(0.7071 -0.7071 0.7071 0.7071 2092 -377.119)" fill="#FFFFFF"/>
</g>
<g id="Group">
<g id="Group">
<g id="Vector">
<use xlink:href="#path1_fill" transform="translate(2117.38 -397.928)" fill="#212D35"/>
</g>
<g id="Vector">
<use xlink:href="#path2_fill" transform="translate(2161.48 -398.302)" fill="#212D35"/>
</g>
</g>
<g id="Group">
<g id="Vector">
<use xlink:href="#path3_fill" transform="translate(2135.57 -378.503)" fill="#212D35"/>
</g>
<g id="Group">
<g id="Vector">
<use xlink:href="#path4_fill" transform="translate(2137.38 -394.003)" fill="#212D35"/>
</g>
<g id="Vector">
<use xlink:href="#path5_fill" transform="translate(2149.48 -394.003)" fill="#212D35"/>
</g>
</g>
</g>
</g>
</g>
<g id="logotype">
<g id="contenta">
<g id="Vector">
<use xlink:href="#path6_fill" transform="translate(2219.18 -387.002)" fill="#FFFFFF"/>
</g>
<g id="Vector">
<use xlink:href="#path7_fill" transform="translate(2235.98 -387.202)" fill="#FFFFFF"/>
</g>
<g id="Vector">
<use xlink:href="#path8_fill" transform="translate(2258.28 -387.102)" fill="#FFFFFF"/>
</g>
<g id="Vector">
<use xlink:href="#path9_fill" transform="translate(2277.68 -392.202)" fill="#FFFFFF"/>
</g>
<g id="Vector">
<use xlink:href="#path10_fill" transform="translate(2292.78 -386.902)" fill="#FFFFFF"/>
</g>
<g id="Vector">
<use xlink:href="#path11_fill" transform="translate(2314.38 -387.102)" fill="#FFFFFF"/>
</g>
<g id="Vector">
<use xlink:href="#path12_fill" transform="translate(2333.78 -392.202)" fill="#FFFFFF"/>
</g>
<g id="Vector">
<use xlink:href="#path13_fill" transform="translate(2348.57 -387.102)" fill="#FFFFFF"/>
</g>
</g>
<g id="cms">
<g id="Vector">
<use xlink:href="#path14_fill" transform="translate(2367.77 -386.202)" fill="#FFFFFF"/>
</g>
<g id="Vector">
<use xlink:href="#path15_fill" transform="translate(2384.27 -386.302)" fill="#FFFFFF"/>
</g>
<g id="Vector">
<use xlink:href="#path16_fill" transform="translate(2412.47 -386.003)" fill="#FFFFFF"/>
</g>
</g>
</g>
</g>
</g>
<defs>
<path id="path0_fill" d="M 76.2 0L 0 0L 0 76.2L 76.2 76.2L 76.2 0Z"/>
<path id="path1_fill" d="M 5.7 1.32529C 4.6 2.32529 4 4.02529 4 6.22529L 4 15.1253C 4 16.5253 3.7 17.4253 3.2 18.0253C 2.7 18.5253 1.8 18.8253 0.7 18.8253L -3.8147e-07 18.8253L -3.8147e-07 22.9253L 0.7 22.9253C 1.8 22.9253 2.6 23.2253 3.2 23.7253C 3.7 24.2253 4 25.2253 4 26.7253L 4 35.5253C 4 37.7253 4.5 39.3253 5.6 40.4253C 6.7 41.4253 8.3 42.0253 10.3 42.0253L 13 42.0253L 13 37.8253L 10.3 37.8253C 9.7 37.8253 9.3 37.7253 8.9 37.4253C 8.6 37.2253 8.4 36.6253 8.4 35.8253L 8.4 26.9253C 8.4 25.1253 8 23.7253 7.3 22.7253C 6.8 22.0253 6.2 21.5253 5.5 21.1253C 6.3 20.7253 6.9 20.2253 7.3 19.5253C 8 18.4253 8.4 17.0253 8.4 15.2253L 8.4 6.32529C 8.4 5.52529 8.6 4.92529 8.8 4.72529C 9.2 4.42529 9.6 4.32529 10.1 4.32529L 12.9 4.32529L 12.9 0.125293L 10.3 0.125293C 8.4 -0.274707 6.8 0.325294 5.7 1.32529Z"/>
<path id="path2_fill" d="M 12.2 19.1C 11.1 19.1 10.3 18.8 9.8 18.3C 9.3 17.8 9 16.8 9 15.3L 9 6.5C 9 4.3 8.5 2.7 7.4 1.6C 6.3 0.599999 4.7 7.62939e-07 2.7 7.62939e-07L 0 7.62939e-07L 0 4.3L 2.7 4.3C 3.3 4.3 3.7 4.4 4.1 4.7C 4.4 4.9 4.6 5.5 4.6 6.3L 4.6 15.3C 4.6 17.1 5 18.5 5.7 19.5C 6.2 20.2 6.8 20.7 7.5 21.1C 6.7 21.5 6.1 22 5.7 22.7C 5 23.8 4.6 25.2 4.6 27L 4.6 35.9C 4.6 36.7 4.4 37.3 4.2 37.5C 3.8 37.8 3.4 37.9 2.9 37.9L 0.0999985 37.9L 0.0999985 42.1L 2.5 42.1C 4.5 42.1 6.1 41.6 7.2 40.6C 8.3 39.6 8.9 37.9 8.9 35.7L 8.9 26.8C 8.9 25.4 9.2 24.5 9.7 23.9C 10.2 23.4 11.1 23.1 12.2 23.1L 12.9 23.1L 12.9 19L 12.2 19L 12.2 19.1Z"/>
<path id="path3_fill" d="M 20.6 0L -1.52588e-06 0L -1.52588e-06 7.9C -1.52588e-06 13.6 4.6 18.2 10.3 18.2C 16 18.2 20.6 13.6 20.6 7.9L 20.6 0Z"/>
<path id="path4_fill" d="M 2.4 0C 1.1 0 1.52588e-06 1.1 1.52588e-06 2.4L 1.52588e-06 11.6L 4.7 11.6L 4.7 2.4C 4.8 1.1 3.7 0 2.4 0Z"/>
<path id="path5_fill" d="M 2.4 0C 1.1 0 0 1.1 0 2.4L 0 11.6L 4.7 11.6L 4.7 2.4C 4.8 1.1 3.7 0 2.4 0Z"/>
<path id="path6_fill" d="M 13.7 14.8C 14 15.3 14.2 15.9 14.4 16.5C 14.6 17.1 14.7 17.9 14.7 18.8C 13.7 19.2 12.8 19.4 12 19.6C 11.1 19.7 10.3 19.8 9.3 19.8C 7.7 19.8 6.29999 19.5 5.19999 19C 3.99999 18.5 3.1 17.8 2.3 16.9C 1.5 16 1 15 0.600003 13.8C 0.200003 12.6 -3.05176e-06 11.3 -3.05176e-06 9.9C -3.05176e-06 8.5 0.200003 7.2 0.600003 6C 1 4.8 1.6 3.8 2.3 2.9C 3.1 2 3.99999 1.3 5.19999 0.799999C 6.29999 0.299999 7.69999 0 9.19999 0C 9.69999 0 10.2 0 10.7 0C 11.2 0 11.6 0.0999985 12 0.0999985C 12.4 0.199998 12.8 0.300002 13.2 0.400002C 13.6 0.500002 14.1 0.700002 14.6 0.900002C 14.6 1.5 14.5 2.1 14.4 2.8C 14.3 3.5 14 4.2 13.7 4.8C 13 4.6 12.3 4.4 11.8 4.3C 11.3 4.2 10.6 4.2 9.90001 4.2C 8.40001 4.2 7.2 4.7 6.5 5.7C 5.7 6.7 5.3 8.1 5.3 9.9C 5.3 11.9 5.7 13.3 6.5 14.2C 7.3 15.1 8.50001 15.6 9.90001 15.6C 10.3 15.6 10.6 15.6 10.9 15.6C 11.2 15.6 11.5 15.6 11.8 15.5C 12.1 15.4 12.4 15.4 12.7 15.3C 13 15.1 13.3 15 13.7 14.8Z"/>
<path id="path7_fill" d="M 9.10001 19.9C 7.60001 19.9 6.20001 19.6 5.10001 19.1C 4.00001 18.6 3 17.9 2.3 17C 1.6 16.1 1.00001 15.1 0.600006 13.9C 0.200006 12.7 0 11.4 0 10C 0 8.6 0.200006 7.3 0.600006 6.1C 1.00001 4.9 1.5 3.8 2.3 2.9C 3 2 4.00001 1.3 5.10001 0.799998C 6.20001 0.299998 7.60001 -7.62939e-07 9.10001 -7.62939e-07C 10.6 -7.62939e-07 12 0.299998 13.1 0.799998C 14.2 1.3 15.2 2 16 2.9C 16.8 3.8 17.3 4.8 17.7 6.1C 18.1 7.4 18.2 8.6 18.2 10C 18.2 11.4 18 12.7 17.7 13.9C 17.4 15.1 16.8 16.1 16 17C 15.2 17.9 14.3 18.6 13.1 19.1C 11.9 19.6 10.6 19.9 9.10001 19.9ZM 9.10001 16C 10.5 16 11.4 15.5 12 14.5C 12.6 13.5 12.9 12 12.9 10.1C 12.9 8.2 12.6 6.7 12 5.7C 11.4 4.7 10.4 4.2 9.10001 4.2C 7.80001 4.2 6.8 4.7 6.2 5.7C 5.6 6.7 5.3 8.2 5.3 10.1C 5.3 12 5.6 13.5 6.2 14.5C 6.8 15.5 7.80001 16 9.10001 16Z"/>
<path id="path8_fill" d="M 3.05176e-06 0.500002C 0.300003 0.400002 0.700003 0.400001 1 0.300001C 1.3 0.300001 1.69999 0.199998 2.09999 0.199998C 2.49999 0.199998 2.9 0.200001 3.2 0.300001C 3.5 0.300001 3.8 0.400002 4.2 0.500002C 4.3 0.600002 4.3 0.800002 4.4 1C 4.5 1.2 4.49999 1.5 4.59999 1.7C 4.69999 1.9 4.7 2.2 4.7 2.5C 4.7 2.7 4.80001 3 4.80001 3.1C 5.00001 2.7 5.3 2.4 5.7 2C 6.1 1.6 6.4 1.3 6.9 1C 7.4 0.700002 7.9 0.500001 8.4 0.300001C 9 0.100001 9.60001 1.52588e-06 10.3 1.52588e-06C 12.4 1.52588e-06 14.1 0.600001 15.2 1.8C 16.3 3 16.8 4.8 16.8 7.3L 16.8 19.4C 15.9 19.5 15.1 19.6 14.2 19.6C 13.3 19.6 12.5 19.5 11.6 19.4L 11.6 8.7C 11.6 7.4 11.4 6.4 11 5.7C 10.6 5 9.9 4.6 8.9 4.6C 8.5 4.6 8.09999 4.7 7.59999 4.8C 7.09999 4.9 6.8 5.2 6.4 5.5C 6 5.9 5.8 6.3 5.5 7C 5.2 7.7 5.2 8.5 5.2 9.5L 5.2 19.4C 4.3 19.5 3.49999 19.6 2.59999 19.6C 1.69999 19.6 0.900003 19.5 3.05176e-06 19.4L 3.05176e-06 0.500002Z"/>
<path id="path9_fill" d="M 2.6 9.5L 0.199994 9.5L -3.05176e-06 8.8L 6.8 -7.62939e-07L 7.6 -7.62939e-07L 7.6 5.5L 12 5.5C 12.1 5.9 12.1 6.2 12.1 6.5C 12.1 6.8 12.1 7.1 12.1 7.4C 12.1 7.7 12.1 8.1 12.1 8.4C 12.1 8.7 12 9.1 12 9.5L 7.6 9.5L 7.6 16.9C 7.6 17.7 7.7 18.3 7.8 18.7C 7.9 19.2 8.1 19.5 8.3 19.8C 8.5 20.1 8.79999 20.3 9.19999 20.3C 9.49999 20.4 9.90001 20.4 10.4 20.4C 10.8 20.4 11.1 20.4 11.5 20.3C 11.9 20.2 12.2 20.2 12.4 20.1C 12.6 20.6 12.7 21 12.8 21.5C 12.9 22 12.9 22.4 12.9 22.8C 12.9 23.1 12.9 23.3 12.9 23.5C 12.9 23.7 12.9 23.9 12.8 24C 11.7 24.3 10.5 24.4 9.3 24.4C 7.1 24.4 5.39999 23.9 4.19999 22.8C 2.99999 21.8 2.40001 20.1 2.40001 17.7L 2.40001 9.5L 2.6 9.5Z"/>
<path id="path10_fill" d="M 5.2 11.3C 5.3 12.8 5.8 13.8 6.7 14.5C 7.6 15.2 8.8 15.5 10.4 15.5C 11.2 15.5 12.1 15.4 12.9 15.3C 13.8 15.1 14.6 14.9 15.4 14.6C 15.7 15.1 15.9 15.7 16.1 16.4C 16.3 17.1 16.4 17.8 16.4 18.6C 14.5 19.3 12.3 19.7 10 19.7C 8.2 19.7 6.7 19.5 5.5 19C 4.3 18.5 3.2 17.8 2.4 17C 1.6 16.1 0.999994 15.1 0.599994 13.9C 0.199994 12.7 3.05176e-06 11.4 3.05176e-06 10C 3.05176e-06 8.6 0.199994 7.3 0.599994 6.1C 0.999994 4.9 1.60001 3.8 2.30001 2.9C 3.10001 2 4 1.3 5.2 0.800002C 6.3 0.300002 7.7 -1.52588e-06 9.2 -1.52588e-06C 10.5 -1.52588e-06 11.7 0.199999 12.7 0.699999C 13.7 1.2 14.6 1.8 15.3 2.6C 16 3.4 16.6 4.4 16.9 5.5C 17.3 6.6 17.4 7.8 17.4 9.1C 17.4 9.6 17.4 10 17.3 10.5C 17.3 11 17.2 11.3 17.2 11.6L 5.2 11.6L 5.2 11.3ZM 12.6 7.7C 12.6 6.5 12.2 5.6 11.6 4.9C 11 4.2 10.2 3.8 9.09999 3.8C 7.89999 3.8 7.00001 4.1 6.30001 4.8C 5.70001 5.5 5.3 6.4 5.2 7.7L 12.6 7.7Z"/>
<path id="path11_fill" d="M -6.10352e-06 0.500002C 0.299994 0.400002 0.699994 0.400001 0.999994 0.300001C 1.29999 0.300001 1.7 0.199998 2.1 0.199998C 2.5 0.199998 2.90001 0.200001 3.20001 0.300001C 3.50001 0.300001 3.80001 0.400002 4.20001 0.500002C 4.30001 0.600002 4.3 0.800002 4.4 1C 4.5 1.2 4.5 1.5 4.6 1.7C 4.7 1.9 4.70001 2.2 4.70001 2.5C 4.70001 2.7 4.8 3 4.8 3.1C 5 2.7 5.30001 2.4 5.70001 2C 6.10001 1.6 6.4 1.3 6.9 1C 7.4 0.700002 7.9 0.500001 8.4 0.300001C 9 0.100001 9.6 1.52588e-06 10.3 1.52588e-06C 12.4 1.52588e-06 14.1 0.600001 15.2 1.8C 16.3 3 16.8 4.8 16.8 7.3L 16.8 19.4C 15.9 19.5 15.1 19.6 14.2 19.6C 13.3 19.6 12.5 19.5 11.6 19.4L 11.6 8.7C 11.6 7.4 11.4 6.4 11 5.7C 10.6 5 9.9 4.6 8.9 4.6C 8.5 4.6 8.1 4.7 7.6 4.8C 7.1 4.9 6.8 5.2 6.4 5.5C 6 5.9 5.79999 6.3 5.49999 7C 5.19999 7.7 5.20001 8.5 5.20001 9.5L 5.20001 19.4C 4.30001 19.5 3.5 19.6 2.6 19.6C 1.7 19.6 0.899994 19.5 -6.10352e-06 19.4L -6.10352e-06 0.500002Z"/>
<path id="path12_fill" d="M 2.59999 9.5L 0.2 9.5L 3.05176e-06 8.8L 6.80001 -7.62939e-07L 7.59999 -7.62939e-07L 7.59999 5.5L 12 5.5C 12.1 5.9 12.1 6.2 12.1 6.5C 12.1 6.8 12.1 7.1 12.1 7.4C 12.1 7.7 12.1 8.1 12.1 8.4C 12.1 8.7 12 9.1 12 9.5L 7.59999 9.5L 7.59999 16.9C 7.59999 17.7 7.70001 18.3 7.80001 18.7C 7.90001 19.2 8.10001 19.5 8.30001 19.8C 8.50001 20.1 8.8 20.3 9.2 20.3C 9.5 20.4 9.9 20.4 10.4 20.4C 10.8 20.4 11.1 20.4 11.5 20.3C 11.9 20.2 12.2 20.2 12.4 20.1C 12.6 20.6 12.7 21 12.8 21.5C 12.9 22 12.9 22.4 12.9 22.8C 12.9 23.1 12.9 23.3 12.9 23.5C 12.9 23.7 12.9 23.9 12.8 24C 11.7 24.3 10.5 24.4 9.30001 24.4C 7.10001 24.4 5.4 23.9 4.2 22.8C 3 21.8 2.4 20.1 2.4 17.7L 2.4 9.5L 2.59999 9.5Z"/>
<path id="path13_fill" d="M 10.8 6.9C 10.8 6.3 10.7 5.8 10.5 5.5C 10.3 5.1 9.99999 4.8 9.69999 4.6C 9.39999 4.4 8.9 4.3 8.4 4.2C 7.9 4.1 7.29999 4.1 6.69999 4.1C 5.39999 4.1 4.00001 4.4 2.50001 4.9C 2.20001 4.3 1.89999 3.7 1.69999 3.1C 1.49999 2.5 1.4 1.9 1.4 1.1C 2.5 0.7 3.50001 0.500001 4.60001 0.300001C 5.70001 0.100001 6.70001 1.52588e-06 7.60001 1.52588e-06C 10.1 1.52588e-06 12.1 0.600001 13.5 1.8C 14.9 3 15.6 5 15.6 7.7L 15.6 18.7C 14.7 19 13.7 19.2 12.5 19.5C 11.3 19.7 9.9 19.9 8.4 19.9C 7.2 19.9 6.00001 19.8 5.00001 19.6C 4.00001 19.4 3.09999 19 2.29999 18.5C 1.59999 18 1.00001 17.3 0.600012 16.5C 0.200012 15.7 6.10352e-06 14.7 6.10352e-06 13.5C 6.10352e-06 12.3 0.199994 11.3 0.799994 10.6C 1.29999 9.8 1.89999 9.2 2.69999 8.7C 3.49999 8.2 4.4 7.9 5.4 7.7C 6.4 7.5 7.39999 7.4 8.29999 7.4C 8.99999 7.4 9.80001 7.4 10.6 7.5L 10.6 6.9L 10.8 6.9ZM 10.8 10.7C 10.5 10.7 10.2 10.6 9.79999 10.6C 9.49999 10.6 9.2 10.5 8.9 10.5C 7.7 10.5 6.80001 10.7 6.10001 11.1C 5.40001 11.5 5.10001 12.2 5.10001 13.2C 5.10001 13.8 5.20001 14.3 5.50001 14.7C 5.80001 15 6.10001 15.3 6.50001 15.5C 6.90001 15.7 7.29999 15.8 7.69999 15.8C 8.09999 15.8 8.49999 15.9 8.79999 15.9C 9.19999 15.9 9.5 15.9 9.9 15.8C 10.3 15.7 10.6 15.7 10.9 15.6L 10.9 10.7L 10.8 10.7Z"/>
<path id="path14_fill" d="M 2.30001 2.7C 1.60001 3.5 0.999994 4.5 0.599994 5.7C 0.199994 6.9 -1.2207e-05 8.1 -1.2207e-05 9.5C -1.2207e-05 12.4 0.800006 14.7 2.30001 16.4C 3.80001 18.1 6.09999 18.9 9.09999 18.9C 10.8 18.9 12.3 18.7 13.6 18.2C 13.6 17.8 13.5 17.4 13.4 17C 13.3 16.7 13.2 16.3 13.1 16.1C 12.5 16.3 12 16.4 11.5 16.5C 10.9 16.6 10.2 16.7 9.40001 16.7C 7.50001 16.7 5.90001 16.1 4.80001 15C 3.70001 13.8 3.09999 12 3.09999 9.6C 3.09999 7.5 3.59999 5.7 4.59999 4.4C 5.59999 3.1 7.09999 2.4 9.09999 2.4C 10.5 2.4 11.8 2.6 13 2.9C 13.1 2.6 13.2 2.2 13.3 1.8C 13.4 1.4 13.4 1 13.4 0.7C 12.8 0.5 12.2 0.3 11.5 0.2C 10.7 0.1 9.80001 -7.62939e-07 8.80001 -7.62939e-07C 7.30001 -7.62939e-07 6.09999 0.2 4.99999 0.7C 3.99999 1.2 3.00001 1.9 2.30001 2.7Z"/>
<path id="path15_fill" d="M 22.9 18.7C 23.5 18.7 24 18.7 24.7 18.7C 24.9 18.7 25.1 18.7 25.3 18.6L 25.3 6.9C 25.3 4.6 24.8 2.9 23.9 1.7C 23 0.600001 21.5 7.62939e-07 19.4 7.62939e-07C 18.7 7.62939e-07 18.1 0.1 17.6 0.3C 17.1 0.5 16.6 0.700001 16.2 1C 15.8 1.3 15.4 1.6 15.1 2C 14.8 2.4 14.5 2.8 14.2 3.2L 13.8 3.9L 13.5 3.2C 13.1 2.2 12.5 1.4 11.8 0.899998C 11.1 0.399998 9.99999 0.0999992 8.59999 0.0999992C 7.89999 0.0999992 7.30001 0.199998 6.80001 0.399998C 6.30001 0.599998 5.80001 0.799999 5.30001 1.1C 4.90001 1.4 4.5 1.7 4.2 2.1C 3.9 2.5 3.60001 2.9 3.40001 3.3L 2.7 4.7L 2.7 3.1C 2.7 2.7 2.69999 2.2 2.59999 1.6C 2.49999 1.1 2.50001 0.799999 2.40001 0.399998C 2.20001 0.399998 2.10001 0.4 1.90001 0.3C 1.50001 0.3 0.900012 0.3 0.400012 0.3C 0.300012 0.3 0.0999878 0.299998 -1.2207e-05 0.399998L -1.2207e-05 18.5C 0.199988 18.5 0.399994 18.5 0.599994 18.6C 1.29999 18.6 1.70001 18.6 2.40001 18.6C 2.60001 18.6 2.80001 18.6 2.90001 18.5L 2.90001 9.3C 2.90001 8.2 3.00001 7.2 3.30001 6.4C 3.50001 5.5 3.90001 4.8 4.30001 4.2C 4.70001 3.6 5.30001 3.2 5.80001 2.9C 6.30001 2.6 7 2.5 7.7 2.5C 8.9 2.5 9.80001 3 10.4 3.9C 10.9 4.8 11.2 6.1 11.2 7.8L 11.2 18.6C 11.4 18.6 11.6 18.6 11.7 18.7C 12.3 18.7 12.8 18.7 13.4 18.7C 13.6 18.7 13.8 18.7 13.9 18.6L 13.9 8.3C 13.9 6.5 14.3 5 15.1 4.1C 15.9 3.1 17.1 2.6 18.4 2.6C 19.7 2.6 20.7 3.1 21.2 4C 21.7 4.9 22 6.2 22 8L 22 18.6C 22.5 18.6 22.7 18.6 22.9 18.7Z"/>
<path id="path16_fill" d="M 12 15.3C 12.3 14.6 12.5 13.8 12.5 13C 12.5 12.2 12.4 11.6 12.2 11.1C 12 10.6 11.7 10.1 11.4 9.8C 11.1 9.4 10.6 9.1 10.1 8.9C 9.60001 8.6 9.1 8.4 8.5 8.2L 6.89999 7.7C 6.49999 7.6 6.00001 7.4 5.70001 7.3C 5.30001 7.1 4.90001 6.9 4.60001 6.7C 4.30001 6.5 3.99999 6.2 3.79999 5.8C 3.59999 5.5 3.5 5 3.5 4.6C 3.5 3.7 3.89999 3 4.79999 2.6C 6.19999 1.9 8.19999 2 9.79999 2.4C 10.4 2.5 11 2.7 11.4 2.9C 11.5 2.6 11.6 2.3 11.7 1.9C 11.8 1.5 11.9 1.2 11.9 0.799999C 11.3 0.599999 10.6 0.399999 9.79999 0.299999C 8.89999 0.0999992 8.00001 0 7.10001 0C 4.90001 0 3.20001 0.500002 2.10001 1.4C 1.00001 2.3 0.5 3.5 0.5 5.1C 0.5 6.3 0.8 7.1 1.5 7.8C 2.2 8.5 3.29999 9.1 4.79999 9.7L 6.10001 10.2C 6.60001 10.3 6.99999 10.5 7.39999 10.7C 7.79999 10.9 8.2 11.1 8.5 11.3C 8.8 11.6 9.09999 11.9 9.29999 12.2C 9.49999 12.6 9.60001 13 9.60001 13.6C 9.60001 14.1 9.50001 14.6 9.20001 15C 8.90001 15.4 8.60001 15.7 8.20001 16C 7.80001 16.3 7.30001 16.5 6.70001 16.6C 5.40001 16.9 4.00001 16.8 2.60001 16.5C 1.90001 16.4 1.30001 16.2 0.700012 16C 0.600012 16.4 0.399988 16.7 0.299988 17.1C 0.199988 17.5 0.1 17.8 0 18.2C 0.7 18.4 1.40001 18.6 2.10001 18.7C 3.00001 18.9 4.00001 18.9 5.10001 18.9C 6.20001 18.9 7.20001 18.8 8.10001 18.5C 9.00001 18.2 9.79999 17.8 10.4 17.3C 11.2 16.6 11.7 16 12 15.3Z"/>
</defs>
</svg>
