<?xml version="1.0" encoding="utf-8"?>
<!-- Generator: Adobe Illustrator 18.1.1, SVG Export Plug-In . SVG Version: 6.00 Build 0)  -->
<svg version="1.1" id="Layer_1" xmlns="http://www.w3.org/2000/svg" xmlns:xlink="http://www.w3.org/1999/xlink" x="0px" y="0px"
	 width="165.5px" height="212.8px" viewBox="0 0 165.5 212.8" enable-background="new 0 0 165.5 212.8" xml:space="preserve">
<path fill="#E13526" d="M43.7,114.9h77.6c4.4,0,8-3.6,8-8V46.7c0-4.4-3.6-8-8-8H43.7c-4.4,0-8,3.6-8,8V107
	C35.7,111.4,39.3,114.9,43.7,114.9z M89.7,66.8c0,3.8,3.1,6.9,6.9,6.9c3.8,0,6.9-3.1,6.9-6.9h2c0,4.9-4,8.9-8.9,8.9
	c-4.9,0-8.9-4-8.9-8.9H89.7z M92.4,91.6c2.4-2,3.9-4.8,3.9-7.8h0h2c0,7.4-7.1,13.1-15.5,13.1c-8.4,0-15.4-5.7-15.5-13.1h2
	c0,3,1.5,5.8,3.9,7.8c2.4,2,5.8,3.3,9.6,3.3C86.6,94.9,90,93.7,92.4,91.6z M60.2,66.8c0,3.8,3.1,6.9,6.9,6.9c3.8,0,6.9-3.1,6.9-6.9
	h0h2c0,4.9-4,8.9-8.9,8.9c-4.9,0-8.9-4-8.9-8.9H60.2z M165.5,134v78.8h-30.9v-52.2h-5.3v52.2H35.5v-52.2h-5.3v52.2H0V134
	c0-7.5,6.1-13.5,13.5-13.5H152C159.5,120.5,165.5,126.5,165.5,134z M134.2,91.9V61.7c0-2.5,2-4.5,4.5-4.5c2.5,0,4.5,2,4.5,4.5v30.2
	c0,2.5-2,4.5-4.5,4.5C136.2,96.4,134.2,94.4,134.2,91.9z M21.8,91.9V61.7c0-2.5,2-4.5,4.5-4.5c2.5,0,4.5,2,4.5,4.5v30.2
	c0,2.5-2,4.5-4.5,4.5C23.8,96.4,21.8,94.4,21.8,91.9z M74.2,8.3c0-4.6,3.7-8.3,8.3-8.3c4.6,0,8.3,3.7,8.3,8.3c0,3.3-1.9,6.1-4.6,7.4
	l2.4,19.1H76.5l2.4-19.1C76.1,14.4,74.2,11.6,74.2,8.3z"/>
<g>
</g>
<g>
</g>
<g>
</g>
<g>
</g>
<g>
</g>
<g>
</g>
</svg>
